<?xml version="1.0" encoding="utf-8"?>
<!-- Generator: Adobe Illustrator 18.1.0, SVG Export Plug-In . SVG Version: 6.00 Build 0)  -->
<svg version="1.1" id="Layer_1" xmlns="http://www.w3.org/2000/svg" xmlns:xlink="http://www.w3.org/1999/xlink" x="0px" y="0px"
	 viewBox="0 0 259 96" enable-background="new 0 0 259 96" xml:space="preserve">
<g>
	<polygon fill="#041E41" points="249.8,87 9.2,87 9.2,10 249.8,10 236,34 	"/>
	<g>
		<path fill="#FFFFFF" d="M13.4,28h3.9c0,1.4,0.2,3.4,2,3.4c2.1,0,2.4-1.8,2.4-5.9h-4.2v-2.9h4.1c0-3.5-0.4-5-2.2-5
			c-1.2,0-2,0.9-2,3h-3.8c0-3.8,1.8-5.8,5.8-5.8c6.1,0,6.1,4.7,6.1,9.7c0,4.9,0,9.7-6.4,9.7C15.5,34.3,13.4,32.6,13.4,28z"/>
		<path fill="#FFFFFF" d="M27.9,15.2h4v7.4h4.4v-7.4h4v18.8h-4v-8.3h-4.4v8.3h-4V15.2z"/>
		<path fill="#FFFFFF" d="M52.8,33.9H42.7V15.2h3.9V31h4.5V15.2H55V31h1.5v6.6h-3.7V33.9z"/>
		<path fill="#FFFFFF" d="M57.9,15.2h3.8v11.9h0.1l4.4-11.9h4.4v18.8h-3.8V22h-0.1l-4.4,11.9h-4.4V15.2z"/>
		<path fill="#FFFFFF" d="M73.1,15.2h4v7.9l4.6-7.9H86l-5.3,8.4L86,33.9h-4.4l-4.5-9.5v9.5h-4V15.2z"/>
		<path fill="#FFFFFF" d="M86,33.9v-2.9c0.2,0,0.5,0.1,0.8,0.1c1.1,0,1.7-1.1,2-2.4c0.3-1.4,0.3-3.4,0.3-7.9v-5.7h11.2v18.8h-3.9
			V18.1h-3.5v4.6c0,5.4-0.1,7.6-1.2,9.4c-1,1.7-2.2,2.2-3.9,2.2C87.4,34.2,86.4,34.1,86,33.9z"/>
		<path fill="#FFFFFF" d="M102.6,24.3c0-5.2,0.5-9.6,6.5-9.6c6.4,0,6.6,4.2,6.6,9.8c0,5.6-0.1,9.9-6.6,9.9
			C102.9,34.3,102.6,29.7,102.6,24.3z M111.6,24.1c0-4,0.1-6.7-2.5-6.7c-2.5,0-2.5,2.4-2.5,7.5c0,4.2,0.2,6.6,2.5,6.6
			C111.6,31.5,111.6,29.1,111.6,24.1z"/>
		<path fill="#FFFFFF" d="M118,15.2h12.3v18.8h-3.9V18.1H122v15.9H118V15.2z"/>
		<path fill="#FFFFFF" d="M133.1,15.2h10.2v2.9H137v4.6h5.8v2.9H137V31h6.5v2.9h-10.5V15.2z"/>
		<path fill="#FFFFFF" d="M144.5,31h1.2c0.5-1,1-2.7,1.4-4.4c0.3-1.5,0.7-4.7,0.7-11.4h11V31h1.4v6.6h-3.7v-3.7h-8.3v3.7h-3.7V31z
			 M154.8,31V18.1h-3.4c0,5-0.5,7.8-0.7,9.1c-0.3,1.5-0.7,3-1.1,3.9H154.8z"/>
		<path fill="#FFFFFF" d="M161.3,15.2h3.8v11.9h0.1l4.4-11.9h4.4v18.8h-3.8V22h-0.1l-4.4,11.9h-4.4V15.2z"/>
		<path fill="#FFFFFF" d="M176.8,28.6c0.3-2.6,1.5-3.5,3.2-3.7v-0.1c-2.5-0.4-3.6-2.2-3.6-4.6c0-3.2,1.8-5,4.8-5h7.2v18.8h-3.9v-7.6
			h-1.1c-2.5,0-2.6,1.8-2.9,4c-0.2,1.2-0.5,3-0.7,3.6h-4C176.2,33.1,176.6,29.8,176.8,28.6z M184.5,23.4v-5.4h-1.8
			c-1.5,0-2.3,0.8-2.3,2.5c0,1.2,0.4,2.8,2.2,2.8H184.5z"/>
		<path fill="#FFFFFF" d="M14.2,39.2h6.6c3.2,0,5.5,1.1,5.5,5.6c0,3.8-1.7,5.5-5.5,5.5h-2.6v7.6h-4V39.2z M19.7,47.4
			c1.7,0,2.5-0.9,2.5-2.7c0-2.4-1.2-2.7-3.1-2.7h-1.1v5.4H19.7z"/>
		<path fill="#FFFFFF" d="M31.9,52.7l-5.3-13.6h4.2l3.1,8.9l3.2-8.9h3.8l-7.4,18.8h-4L31.9,52.7z"/>
		<path fill="#FFFFFF" d="M40.5,48.6c0-5.3,0.2-9.7,6.5-9.7c3.6,0,5.5,1.8,5.5,5.6v0.6h-3.8v-0.4c0-1.9-0.6-2.9-1.9-2.9
			c-2.2,0-2.3,2.9-2.3,7.1c0,3.7,0.1,6.4,2.3,6.4c1.9,0,2-2.3,2-3.7h3.9v0.5c0,4-1.9,6-5.9,6C40.8,58.2,40.5,53.7,40.5,48.6z"/>
		<path fill="#FFFFFF" d="M54.5,48.6c0-5.3,0.2-9.7,6.5-9.7c3.6,0,5.5,1.8,5.5,5.6v0.6h-3.8v-0.4c0-1.9-0.6-2.9-1.9-2.9
			c-2.2,0-2.3,2.9-2.3,7.1c0,3.7,0.1,6.4,2.3,6.4c1.9,0,2-2.3,2-3.7h3.9v0.5c0,4-1.9,6-5.9,6C54.8,58.2,54.5,53.7,54.5,48.6z"/>
		<path fill="#FFFFFF" d="M68.5,39.2h4v7.9l4.6-7.9h4.3l-5.3,8.4l5.3,10.3H77l-4.5-9.5v9.5h-4V39.2z"/>
		<path fill="#FFFFFF" d="M81.7,48.3c0-5.2,0.5-9.6,6.5-9.6c6.4,0,6.6,4.2,6.6,9.8c0,5.6-0.1,9.9-6.6,9.9
			C82,58.3,81.7,53.7,81.7,48.3z M90.7,48.1c0-4,0.1-6.7-2.5-6.7c-2.5,0-2.5,2.4-2.5,7.5c0,4.2,0.2,6.6,2.5,6.6
			C90.7,55.5,90.7,53.1,90.7,48.1z"/>
		<path fill="#FFFFFF" d="M96.7,39.2h9.6v2.9h-5.7v15.9h-3.9V39.2z"/>
		<path fill="#FFFFFF" d="M107,48.3c0-5.2,0.5-9.6,6.5-9.6c6.4,0,6.6,4.2,6.6,9.8c0,5.6-0.1,9.9-6.6,9.9
			C107.3,58.3,107,53.7,107,48.3z M116,48.1c0-4,0.1-6.7-2.5-6.7c-2.5,0-2.5,2.4-2.5,7.5c0,4.2,0.2,6.6,2.5,6.6
			C116,55.5,116,53.1,116,48.1z"/>
		<path fill="#FFFFFF" d="M17.9,62.8h5.2l5.1,18.8h-4.1l-1-4.2h-5.4l-1.1,4.2h-3.9L17.9,62.8z M22.2,74.5l-2-8.2l-1.8,8.2H22.2z"/>
		<path fill="#FFFFFF" d="M29.7,62.8h6.4c3.3,0,6,0.7,6,4.7c0,2.4-1.1,3.8-3.2,4.3c2.4,0.4,3.5,1.8,3.5,4.7c0,4-2.4,5.1-5.9,5.1
			h-6.9V62.8z M35.8,70.4c1.6,0,2.5-0.8,2.5-2.2V68c0-2.5-1.9-2.3-3.8-2.3h-0.9v4.8H35.8z M34.7,78.6c2.3,0,3.8,0,3.8-2.7
			c0-2.2-1.1-2.6-3.1-2.6h-1.8v5.3H34.7z"/>
		<path fill="#FFFFFF" d="M48.2,62.8h5.2l5.1,18.8h-4.1l-1-4.2h-5.4l-1.1,4.2H43L48.2,62.8z M52.5,74.5l-1.9-8.2l-1.8,8.2H52.5z"/>
		<path fill="#FFFFFF" d="M59.5,62.8h4v7.4h4.4v-7.4h4v18.8h-4v-8.3h-4.4v8.3h-4V62.8z"/>
		<path fill="#FFFFFF" d="M74.4,62.8h9.6v2.9h-5.7v15.9h-3.9V62.8z"/>
		<path fill="#FFFFFF" d="M87.6,62.8h5.2l5.1,18.8h-4.1l-1-4.2h-5.4l-1.1,4.2h-3.9L87.6,62.8z M91.9,74.5L90,66.4l-1.8,8.2H91.9z"/>
		<path fill="#FFFFFF" d="M99.2,62.8h6.6c3.2,0,5.5,1.1,5.5,5.6c0,3.8-1.7,5.5-5.5,5.5h-2.6v7.6h-4V62.8z M104.7,71
			c1.7,0,2.5-0.9,2.5-2.7c0-2.4-1.2-2.7-3.1-2.7h-1.1V71H104.7z"/>
		<path fill="#FFFFFF" d="M110,78.6h1.2c0.5-1,1-2.7,1.4-4.4c0.3-1.5,0.7-4.7,0.7-11.4h11v15.8h1.4v6.6h-3.7v-3.7h-8.3v3.7H110V78.6
			z M120.3,78.6V65.6h-3.4c0,5-0.5,7.8-0.7,9.1c-0.3,1.5-0.6,3-1.1,3.9H120.3z"/>
		<path fill="#FFFFFF" d="M132.4,62.8h5.2l5.1,18.8h-4.1l-1-4.2h-5.4l-1.1,4.2h-3.9L132.4,62.8z M136.7,74.5l-1.9-8.2l-1.8,8.2
			H136.7z"/>
	</g>
</g>
</svg>
