<svg id="logo_2" xmlns="http://www.w3.org/2000/svg" width="240.562" height="77" viewBox="0 0 240.562 77">
  <defs>
    <style>
      .cls-1 {
        fill: #002b5c;
      }

      .cls-1, .cls-2 {
        fill-rule: evenodd;
      }

      .cls-2 {
        fill: #fff;
      }
    </style>
  </defs>
  <path class="cls-1" d="M343.786,100.491H103.214V23.509H343.786L330,47.477Z" transform="translate(-103.219 -23.5)"/>
  <path class="cls-2" d="M107.416,41.557h3.874c0,1.378.181,3.406,2,3.406,2.054,0,2.392-1.794,2.392-5.876h-4.16V36.2h4.134c0-3.484-.39-5.018-2.236-5.018-1.17,0-1.951.936-1.951,2.99h-3.847c0-3.8,1.794-5.8,5.8-5.8,6.058,0,6.136,4.732,6.136,9.7,0,4.914-.026,9.7-6.4,9.7C109.5,47.771,107.416,46.16,107.416,41.557Zm14.464-12.87h3.951v7.436h4.446V28.687h3.952V47.459h-3.952V39.191h-4.446v8.269H121.88V28.687Zm24.926,18.772H136.639V28.687h3.927V44.521h4.5V28.687h3.926V44.521h1.482v6.6h-3.666V47.459Zm5.031-18.772h3.8V40.621h0.078L160.1,28.687H164.5V47.459H160.7V35.525h-0.078l-4.394,11.935h-4.4V28.687Zm15.252,0h3.953v7.9l4.627-7.9h4.317l-5.252,8.424,5.252,10.349h-4.42l-4.524-9.49v9.49h-3.953V28.687Zm12.893,18.772V44.6a5.19,5.19,0,0,0,.806.078c1.145,0,1.69-1.066,2-2.392,0.338-1.378.287-3.432,0.287-7.93V28.687h11.18V47.459h-3.926V31.573h-3.537v4.55c0,5.382-.1,7.618-1.17,9.36a4.077,4.077,0,0,1-3.925,2.21A8.015,8.015,0,0,1,179.982,47.459Zm16.581-9.646c0-5.2.494-9.62,6.474-9.62,6.371,0,6.552,4.16,6.552,9.75,0,5.564-.13,9.854-6.6,9.854C196.875,47.8,196.563,43.169,196.563,37.813Zm9.022-.156c0-4,.078-6.656-2.5-6.656-2.5,0-2.521,2.392-2.521,7.462,0,4.212.208,6.552,2.469,6.552C205.56,45.015,205.585,42.6,205.585,37.657Zm6.422-8.97h12.35V47.459h-3.926V31.573h-4.5V47.459h-3.926V28.687Zm15.085,0h10.245v2.886h-6.318V36.2h5.824v2.886h-5.824v5.434h6.526v2.938H227.092V28.687Zm11.37,15.834h1.223a20.534,20.534,0,0,0,1.4-4.446c0.313-1.482.678-4.654,0.678-11.388h10.971V44.521h1.353v6.6h-3.666V47.459h-8.3v3.666h-3.666v-6.6Zm10.348,0V31.573h-3.379a47.755,47.755,0,0,1-.729,9.074,15.586,15.586,0,0,1-1.091,3.874h5.2Zm6.46-15.834h3.8V40.621h0.078l4.393-11.934h4.395V47.459h-3.8V35.525h-0.078l-4.4,11.935H255.27V28.687Zm15.5,13.39c0.338-2.626,1.534-3.484,3.224-3.692V38.307c-2.547-.416-3.588-2.236-3.588-4.628,0-3.2,1.846-4.992,4.837-4.992h7.2V47.459h-3.926V39.815h-1.145c-2.5,0-2.574,1.82-2.885,4.03-0.183,1.222-.469,3.042-0.651,3.614h-3.952C270.143,46.6,270.612,43.273,270.767,42.077Zm7.749-5.148V31.573h-1.847c-1.534,0-2.288.754-2.288,2.548,0,1.2.442,2.808,2.21,2.808h1.925ZM108.17,52.687h6.552c3.224,0,5.512,1.066,5.512,5.642,0,3.8-1.69,5.486-5.538,5.486h-2.574v7.645H108.17V52.687Zm5.538,8.242c1.716,0,2.548-.858,2.548-2.678,0-2.444-1.248-2.678-3.068-2.678h-1.066v5.356h1.586Zm12.14,5.33L120.57,52.687h4.16l3.094,8.892,3.25-8.892h3.8l-7.385,18.773h-4.03Zm8.661-4.16c0-5.3.181-9.7,6.473-9.7,3.64,0,5.461,1.846,5.461,5.564v0.65h-3.849V58.2c0-1.95-.623-2.938-1.872-2.938-2.183,0-2.288,2.86-2.288,7.125,0,3.744.1,6.448,2.315,6.448,1.924,0,2.028-2.288,2.028-3.692h3.875v0.546c0,4-1.926,5.98-5.852,5.98C134.768,71.667,134.509,67.247,134.509,62.1Zm13.986,0c0-5.3.182-9.7,6.474-9.7,3.641,0,5.461,1.846,5.461,5.564v0.65h-3.849V58.2c0-1.95-.624-2.938-1.872-2.938-2.183,0-2.288,2.86-2.288,7.125,0,3.744.105,6.448,2.315,6.448,1.923,0,2.027-2.288,2.027-3.692h3.875v0.546c0,4-1.925,5.98-5.851,5.98C148.755,71.667,148.5,67.247,148.5,62.1Zm14.018-9.412h3.953v7.9l4.627-7.9h4.316l-5.251,8.424,5.251,10.349H170.99l-4.524-9.49v9.49h-3.953V52.687Zm13.17,9.126c0-5.2.494-9.62,6.475-9.62,6.369,0,6.55,4.16,6.55,9.75,0,5.564-.129,9.855-6.6,9.855C176,71.8,175.683,67.169,175.683,61.813Zm9.021-.156c0-4,.079-6.656-2.5-6.656-2.5,0-2.521,2.392-2.521,7.462,0,4.212.209,6.552,2.471,6.552C184.679,69.015,184.7,66.6,184.7,61.657Zm6-8.97h9.62v2.886h-5.694V71.459H190.7V52.687Zm10.252,9.126c0-5.2.5-9.62,6.475-9.62,6.37,0,6.553,4.16,6.553,9.75,0,5.564-.131,9.855-6.6,9.855C201.267,71.8,200.954,67.169,200.954,61.813Zm9.023-.156c0-4,.078-6.656-2.5-6.656-2.5,0-2.522,2.392-2.522,7.462,0,4.212.208,6.552,2.47,6.552C209.951,69.015,209.977,66.6,209.977,61.657ZM111.914,76.265h5.174l5.1,18.772H118.05l-1.04-4.16h-5.356l-1.066,4.16h-3.874Zm4.29,11.778-1.95-8.165-1.846,8.165h3.8Zm7.457-11.778h6.449c3.275,0,5.979.728,5.979,4.732,0,2.392-1.092,3.848-3.2,4.29,2.443,0.364,3.51,1.794,3.51,4.654,0,4.03-2.367,5.1-5.851,5.1h-6.89V76.265Zm6.11,7.67c1.612,0,2.5-.754,2.5-2.184v-0.26c0-2.522-1.9-2.34-3.8-2.34h-0.91v4.784h2.21Zm-1.092,8.216c2.263,0,3.8-.026,3.8-2.7,0-2.184-1.067-2.626-3.095-2.626h-1.82v5.33h1.118Zm13.476-15.886h5.174l5.1,18.772H148.29l-1.039-4.16H141.9l-1.066,4.16h-3.874Zm4.29,11.778-1.95-8.165-1.846,8.165h3.8Zm6.992-11.778h3.953V83.7h4.445V76.265h3.951V95.037h-3.951V86.769H157.39v8.269h-3.953V76.265Zm14.99,0h9.619v2.886h-5.693V95.037h-3.926V76.265Zm13.2,0H186.8l5.1,18.772h-4.135l-1.039-4.16h-5.355l-1.067,4.16h-3.875Zm4.289,11.778-1.949-8.165-1.846,8.165h3.8Zm7.245-11.778h6.553c3.224,0,5.512,1.066,5.512,5.642,0,3.8-1.69,5.486-5.538,5.486h-2.574v7.645h-3.953V76.265Zm5.539,8.242c1.715,0,2.547-.858,2.547-2.678,0-2.444-1.248-2.678-3.067-2.678h-1.066v5.356H198.7Zm5.258,7.592h1.223a20.417,20.417,0,0,0,1.4-4.446c0.313-1.482.677-4.654,0.677-11.388H218.23V92.1h1.352v6.6h-3.666V95.037h-8.295V98.7h-3.666V92.1Zm10.349,0V79.151h-3.38a47.88,47.88,0,0,1-.728,9.074A15.581,15.581,0,0,1,209.1,92.1h5.2Zm12.055-15.834h5.174l5.095,18.772H232.5l-1.041-4.16H226.1l-1.066,4.16h-3.875Zm4.289,11.778L228.7,79.879l-1.846,8.165h3.795Z" transform="translate(-103.219 -23.5)"/>
</svg>
