<?xml version="1.0" encoding="utf-8"?>
<!-- Generator: Adobe Illustrator 18.1.0, SVG Export Plug-In . SVG Version: 6.00 Build 0)  -->
<svg version="1.1" id="Layer_1" xmlns="http://www.w3.org/2000/svg" xmlns:xlink="http://www.w3.org/1999/xlink" x="0px" y="0px"
	 viewBox="0 0 200 300" enable-background="new 0 0 200 300" xml:space="preserve">
<g>
	<polygon fill="#041E41" points="220.3,189 -20.3,189 -20.3,112 220.3,112 206.5,136 	"/>
	<g>
		<path fill="#FFFFFF" d="M-16.1,130.1h3.9c0,1.4,0.2,3.4,2,3.4c2.1,0,2.4-1.8,2.4-5.9H-12v-2.9h4.1c0-3.5-0.4-5-2.2-5
			c-1.2,0-2,0.9-2,3h-3.8c0-3.8,1.8-5.8,5.8-5.8c6.1,0,6.1,4.7,6.1,9.7c0,4.9,0,9.7-6.4,9.7C-14,136.3-16.1,134.7-16.1,130.1z"/>
		<path fill="#FFFFFF" d="M-1.6,117.2h4v7.4h4.4v-7.4h4V136h-4v-8.3H2.3v8.3h-4V117.2z"/>
		<path fill="#FFFFFF" d="M23.3,136H13.1v-18.8h3.9V133h4.5v-15.8h3.9V133H27v6.6h-3.7V136z"/>
		<path fill="#FFFFFF" d="M28.3,117.2h3.8v11.9h0.1l4.4-11.9H41V136h-3.8V124h-0.1L32.7,136h-4.4V117.2z"/>
		<path fill="#FFFFFF" d="M43.6,117.2h4v7.9l4.6-7.9h4.3l-5.3,8.4l5.3,10.3h-4.4l-4.5-9.5v9.5h-4V117.2z"/>
		<path fill="#FFFFFF" d="M56.5,136v-2.9c0.2,0,0.5,0.1,0.8,0.1c1.1,0,1.7-1.1,2-2.4c0.3-1.4,0.3-3.4,0.3-7.9v-5.7h11.2V136h-3.9
			v-15.9h-3.5v4.6c0,5.4-0.1,7.6-1.2,9.4c-1,1.7-2.2,2.2-3.9,2.2C57.8,136.2,56.9,136.1,56.5,136z"/>
		<path fill="#FFFFFF" d="M73.1,126.3c0-5.2,0.5-9.6,6.5-9.6c6.4,0,6.6,4.2,6.6,9.8c0,5.6-0.1,9.9-6.6,9.9
			C73.4,136.3,73.1,131.7,73.1,126.3z M82.1,126.2c0-4,0.1-6.7-2.5-6.7c-2.5,0-2.5,2.4-2.5,7.5c0,4.2,0.2,6.6,2.5,6.6
			C82.1,133.5,82.1,131.1,82.1,126.2z"/>
		<path fill="#FFFFFF" d="M88.5,117.2h12.3V136h-3.9v-15.9h-4.5V136h-3.9V117.2z"/>
		<path fill="#FFFFFF" d="M103.6,117.2h10.2v2.9h-6.3v4.6h5.8v2.9h-5.8v5.4h6.5v2.9h-10.5V117.2z"/>
		<path fill="#FFFFFF" d="M115,133h1.2c0.5-1,1-2.7,1.4-4.4c0.3-1.5,0.7-4.7,0.7-11.4h11V133h1.4v6.6h-3.7V136h-8.3v3.7H115V133z
			 M125.3,133v-12.9h-3.4c0,5-0.5,7.8-0.7,9.1c-0.3,1.5-0.7,3-1.1,3.9H125.3z"/>
		<path fill="#FFFFFF" d="M131.8,117.2h3.8v11.9h0.1l4.4-11.9h4.4V136h-3.8V124h-0.1l-4.4,11.9h-4.4V117.2z"/>
		<path fill="#FFFFFF" d="M147.3,130.6c0.3-2.6,1.5-3.5,3.2-3.7v-0.1c-2.5-0.4-3.6-2.2-3.6-4.6c0-3.2,1.8-5,4.8-5h7.2V136H155v-7.6
			h-1.1c-2.5,0-2.6,1.8-2.9,4c-0.2,1.2-0.5,3-0.7,3.6h-4C146.6,135.1,147.1,131.8,147.3,130.6z M155,125.4v-5.4h-1.8
			c-1.5,0-2.3,0.8-2.3,2.5c0,1.2,0.4,2.8,2.2,2.8H155z"/>
		<path fill="#FFFFFF" d="M-15.3,141.2h6.6c3.2,0,5.5,1.1,5.5,5.6c0,3.8-1.7,5.5-5.5,5.5h-2.6v7.6h-4V141.2z M-9.8,149.4
			c1.7,0,2.5-0.9,2.5-2.7c0-2.4-1.2-2.7-3.1-2.7h-1.1v5.4H-9.8z"/>
		<path fill="#FFFFFF" d="M2.3,154.8l-5.3-13.6h4.2l3.1,8.9l3.2-8.9h3.8L4,160h-4L2.3,154.8z"/>
		<path fill="#FFFFFF" d="M11,150.6c0-5.3,0.2-9.7,6.5-9.7c3.6,0,5.5,1.8,5.5,5.6v0.6h-3.8v-0.4c0-1.9-0.6-2.9-1.9-2.9
			c-2.2,0-2.3,2.9-2.3,7.1c0,3.7,0.1,6.4,2.3,6.4c1.9,0,2-2.3,2-3.7h3.9v0.5c0,4-1.9,6-5.9,6C11.3,160.2,11,155.8,11,150.6z"/>
		<path fill="#FFFFFF" d="M25,150.6c0-5.3,0.2-9.7,6.5-9.7c3.6,0,5.5,1.8,5.5,5.6v0.6h-3.8v-0.4c0-1.9-0.6-2.9-1.9-2.9
			c-2.2,0-2.3,2.9-2.3,7.1c0,3.7,0.1,6.4,2.3,6.4c1.9,0,2-2.3,2-3.7h3.9v0.5c0,4-1.9,6-5.9,6C25.2,160.2,25,155.8,25,150.6z"/>
		<path fill="#FFFFFF" d="M39,141.2h4v7.9l4.6-7.9h4.3l-5.3,8.4l5.3,10.3h-4.4l-4.5-9.5v9.5h-4V141.2z"/>
		<path fill="#FFFFFF" d="M52.2,150.3c0-5.2,0.5-9.6,6.5-9.6c6.4,0,6.6,4.2,6.6,9.8c0,5.6-0.1,9.9-6.6,9.9
			C52.5,160.3,52.2,155.7,52.2,150.3z M61.2,150.2c0-4,0.1-6.7-2.5-6.7c-2.5,0-2.5,2.4-2.5,7.5c0,4.2,0.2,6.6,2.5,6.6
			C61.2,157.5,61.2,155.1,61.2,150.2z"/>
		<path fill="#FFFFFF" d="M67.2,141.2h9.6v2.9h-5.7V160h-3.9V141.2z"/>
		<path fill="#FFFFFF" d="M77.4,150.3c0-5.2,0.5-9.6,6.5-9.6c6.4,0,6.6,4.2,6.6,9.8c0,5.6-0.1,9.9-6.6,9.9
			C77.8,160.3,77.4,155.7,77.4,150.3z M86.5,150.2c0-4,0.1-6.7-2.5-6.7c-2.5,0-2.5,2.4-2.5,7.5c0,4.2,0.2,6.6,2.5,6.6
			C86.4,157.5,86.5,155.1,86.5,150.2z"/>
		<path fill="#FFFFFF" d="M-11.6,164.8h5.2l5.1,18.8h-4.1l-1-4.2h-5.4l-1.1,4.2h-3.9L-11.6,164.8z M-7.3,176.6l-2-8.2l-1.8,8.2H-7.3
			z"/>
		<path fill="#FFFFFF" d="M0.2,164.8h6.4c3.3,0,6,0.7,6,4.7c0,2.4-1.1,3.8-3.2,4.3c2.4,0.4,3.5,1.8,3.5,4.7c0,4-2.4,5.1-5.9,5.1H0.2
			V164.8z M6.3,172.4c1.6,0,2.5-0.8,2.5-2.2V170c0-2.5-1.9-2.3-3.8-2.3H4.1v4.8H6.3z M5.2,180.7c2.3,0,3.8,0,3.8-2.7
			c0-2.2-1.1-2.6-3.1-2.6H4.1v5.3H5.2z"/>
		<path fill="#FFFFFF" d="M18.6,164.8h5.2l5.1,18.8h-4.1l-1-4.2h-5.4l-1.1,4.2h-3.9L18.6,164.8z M22.9,176.6l-1.9-8.2l-1.8,8.2H22.9
			z"/>
		<path fill="#FFFFFF" d="M29.9,164.8h4v7.4h4.4v-7.4h4v18.8h-4v-8.3h-4.4v8.3h-4V164.8z"/>
		<path fill="#FFFFFF" d="M44.9,164.8h9.6v2.9h-5.7v15.9h-3.9V164.8z"/>
		<path fill="#FFFFFF" d="M58.1,164.8h5.2l5.1,18.8h-4.1l-1-4.2h-5.4l-1.1,4.2h-3.9L58.1,164.8z M62.4,176.6l-1.9-8.2l-1.8,8.2H62.4
			z"/>
		<path fill="#FFFFFF" d="M69.7,164.8h6.6c3.2,0,5.5,1.1,5.5,5.6c0,3.8-1.7,5.5-5.5,5.5h-2.6v7.6h-4V164.8z M75.2,173
			c1.7,0,2.5-0.9,2.5-2.7c0-2.4-1.2-2.7-3.1-2.7h-1.1v5.4H75.2z"/>
		<path fill="#FFFFFF" d="M80.4,180.6h1.2c0.5-1,1-2.7,1.4-4.4c0.3-1.5,0.7-4.7,0.7-11.4h11v15.8h1.4v6.6h-3.7v-3.7h-8.3v3.7h-3.7
			V180.6z M90.8,180.6v-12.9h-3.4c0,5-0.5,7.8-0.7,9.1c-0.3,1.5-0.6,3-1.1,3.9H90.8z"/>
		<path fill="#FFFFFF" d="M102.9,164.8h5.2l5.1,18.8H109l-1-4.2h-5.4l-1.1,4.2h-3.9L102.9,164.8z M107.1,176.6l-1.9-8.2l-1.8,8.2
			H107.1z"/>
	</g>
</g>
</svg>
